<?xml version="1.0" standalone="no"?><!DOCTYPE svg PUBLIC "-//W3C//DTD SVG 1.1//EN" "http://www.w3.org/Graphics/SVG/1.1/DTD/svg11.dtd"><svg t="1677239720199" class="icon" viewBox="0 0 1024 1024" version="1.1" xmlns="http://www.w3.org/2000/svg" p-id="5719" xmlns:xlink="http://www.w3.org/1999/xlink" width="200" height="200"><path d="M736 736v160H128V288h160V128h640v608z" fill="#FFFFFF" p-id="5720"></path><path d="M416 576v-160h160V256h192v192h-160v160h-160v128H288v-160z" fill="#30AD98" p-id="5721"></path><path d="M416 736v-128H288v-32h128v-160h160V256h192v192h-160v160h-160v128h-32z m32-160h128v-128h-128v128z m160-288v128h128V288h-128z m-128 480v-32h96v-96h32v96h128v32h-256z m-224-224V288h32v128h96v32H288v96H256z m160-160V288H288V256h128V128h32v128h96v32h-96v96h-32z m160-160V128h32v96h-32z m160 0V128h32v96h-32z m64 32h96v32h-96V256z m0 160h96v32h-96v-32z m-32 64v96h128v32h-128v128h-32v-128h-96v-32h96v-96h32zM448 800v96h-32v-96h32z m-160 0v96H256v-96h32z m-64-32H128v-32h96v32z m0-160H128v-32h96v32z m384 160v128h-32v-128h32zM256 448H128v-32h128v32z" fill="#D5D9DF" p-id="5722"></path><path d="M288 256v32H128v608h608v-160h32v160a32 32 0 0 1-32 32H128a32 32 0 0 1-32-32V288a32 32 0 0 1 32-32h160z" fill="#808FA1" p-id="5723"></path><path d="M288 96h608a32 32 0 0 1 32 32v608a32 32 0 0 1-32 32H288a32 32 0 0 1-32-32V128a32 32 0 0 1 32-32z m0 32v608h608V128H288z" fill="#5D6D7E" p-id="5724"></path></svg>